<svg xmlns="http://www.w3.org/2000/svg" viewBox="0 0 12.81 23.69"><defs><style>.cls-1{fill:#999;}</style></defs><title>Facebook logo</title><g id="Layer_2" data-name="Layer 2"><g id="Layer_1-2" data-name="Layer 1"><path class="cls-1" d="M12.33,0H9.26C5.8,0,3.57,2.29,3.57,5.83V8.52H.48A.49.49,0,0,0,0,9v3.9a.49.49,0,0,0,.48.48H3.57v9.83a.48.48,0,0,0,.49.48h4a.48.48,0,0,0,.48-.48V13.38h3.61a.48.48,0,0,0,.48-.48V9a.49.49,0,0,0-.15-.34.48.48,0,0,0-.34-.14H8.57V6.24c0-1.09.26-1.65,1.69-1.65h2.07a.49.49,0,0,0,.48-.48V.49A.5.5,0,0,0,12.33,0Z"/></g></g></svg>