<svg xmlns="http://www.w3.org/2000/svg" viewBox="0 0 44.22 42.78"><defs><style>.cls-1{fill:#00a4ff;}</style></defs><title>GloRaise Emblem</title><g id="Layer_2" data-name="Layer 2"><g id="Layer_1-2" data-name="Layer 1"><path id="_Compound_Path_4" data-name=" Compound Path 4" class="cls-1" d="M12.44,39.6V3.17A2.56,2.56,0,0,1,14.08.78a19.6,19.6,0,0,1,2-.68,2.58,2.58,0,0,1,3.18,1.76,2.44,2.44,0,0,1,.1.71v37.6a2.58,2.58,0,0,1-2.58,2.58,2.75,2.75,0,0,1-.7-.1c-.68-.2-1.36-.42-2-.68a2.58,2.58,0,0,1-1.64-2.4m-5.51-10V13.17a2.57,2.57,0,0,0-4.91-1A22.19,22.19,0,0,0,2,30.66,2.57,2.57,0,0,0,6.93,29.6M30.21.78a20.47,20.47,0,0,0-2-.68A2.58,2.58,0,0,0,25,1.86a2.44,2.44,0,0,0-.1.71v37.6a2.57,2.57,0,0,0,3.28,2.51c.68-.2,1.36-.42,2-.68a2.59,2.59,0,0,0,1.63-2.4V3.17A2.56,2.56,0,0,0,30.21.78m7.11,12.39v16.4a2.57,2.57,0,0,0,4.89,1.06,22.2,22.2,0,0,0,0-18.46,2.57,2.57,0,0,0-4.89,1"/></g></g></svg>