<svg xmlns="http://www.w3.org/2000/svg" viewBox="0 0 451 361.79"><defs><style>.cls-1{fill:#767676;}.cls-2{fill:#3d3d3b;}.cls-3{fill:#a9a9a9;}.cls-4{fill:#e0893b;}.cls-5{fill:#fff;}.cls-6{fill:#61635f;}.cls-7{fill:#f90;}.cls-8{fill:#a4a9a1;}.cls-9{fill:#d8d8c7;}</style></defs><title>Hero illustration</title><g id="Layer_2" data-name="Layer 2"><g id="Layer_1-2" data-name="Layer 1"><path class="cls-1" d="M114.63,186.67,110,188v16.82l317,1.37,7-2.06s1.46-4.8.88-6.52-.27-5.81-2.17-6-8.87-1.21-8.87-1.21Z"/><rect class="cls-2" x="124.62" y="135.4" width="286.58" height="5.88"/><path class="cls-2" d="M176.91,150.21c.06-.32,3.91-4.53,4.09-4.72s5.42,1.27,5.42,1.27l-1,7.41-5.61.13Z"/><path class="cls-2" d="M425.08,151.56s-.94-7.87.86-8.61,8.76-.49,9.62-.41,2.43,3.53,2.9,5.49.7,20.81.63,22a28.8,28.8,0,0,1-2.43,7.13c-.94,1.72-.63,3.6-2.74,3.69s-6.49-2.95-6.1-6.47-.86-13.85-2.58-15-3.13-4.83-2.12-5.81S425.08,151.56,425.08,151.56Z"/><rect class="cls-1" x="128.24" y="141.4" width="287.37" height="6.78"/><rect class="cls-2" x="360.68" y="147.79" width="55.56" height="6.72"/><rect class="cls-1" x="358.37" y="120.57" width="44.61" height="13.19"/><rect class="cls-1" x="415.3" y="141.89" width="7.59" height="13.35"/><rect class="cls-2" x="415.07" y="141.4" width="1.37" height="10.15"/><rect class="cls-3" x="362.36" y="139.76" width="52.21" height="1.6"/><rect class="cls-1" x="362.49" y="133.69" width="49.1" height="0.46"/><rect class="cls-2" x="384.49" y="120.57" width="1.73" height="13.62"/><rect class="cls-2" x="381.03" y="120.6" width="1.56" height="4.91"/><rect class="cls-2" x="377.21" y="120.6" width="1.56" height="4.91"/><rect class="cls-2" x="372.17" y="120.6" width="1.56" height="4.91"/><rect class="cls-2" x="363.31" y="120.6" width="1.56" height="4.91"/><rect class="cls-2" x="367.48" y="120.6" width="1.56" height="4.91"/><rect class="cls-1" x="137.16" y="119.88" width="44.61" height="13.19"/><path class="cls-4" d="M177.51,203.27l-28.76,1.43L120,216.53S109.38,242,109.38,243.06,93,318.34,93,318.34l6.84,34.05,22.6,7.89s305.71,2.51,310.85,1.07,16.43-2.51,17.46-9.32-.69-36.56-3.77-41.94-17.11-68.82-17.11-68.82l1-4s-1.37-30.82-1-32.26-3.08-2.51-3.08-2.51Z"/><path class="cls-5" d="M184.71,158.92,173.23,12.21a108.12,108.12,0,0,0,36.77,8c24.64.85,42.82-7.49,51.27-10.84,21-8.31,53.88-14.4,105.81-3.43l-5.55,155.83Z"/><polygon class="cls-3" points="137.09 132.63 136.97 133.41 181.55 133.54 181.42 132.76 137.09 132.63"/><rect class="cls-2" x="153.92" y="119.88" width="1.73" height="13.62"/><rect class="cls-2" x="157.55" y="119.9" width="1.56" height="4.91"/><rect class="cls-2" x="161.37" y="119.9" width="1.56" height="4.91"/><rect class="cls-2" x="166.41" y="119.9" width="1.56" height="4.91"/><rect class="cls-2" x="175.27" y="119.9" width="1.56" height="4.91"/><rect class="cls-2" x="171.1" y="119.9" width="1.56" height="4.91"/><path class="cls-6" d="M111.76,233S91.57,323.9,97.59,330.1s219.24,4,242.62,5.32,99.16,4.44,99.16-7.54-11.33-94-13.1-96.67S112.83,229.88,111.76,233Z"/><path class="cls-7" d="M109.93,188.6l1.2-44.1s3.61,1.26,11.43,1.89-1.2,1.26,16.55,1.26,33.39-.32,37.6-.32,3.91,6,6.91,6.31,86.94.63,96.26.31,79.71.32,81.52,0,3-4.72,10.23-4.41,44.81,1.26,47.22,2.52a13.23,13.23,0,0,1,5.72,7.56c.9,3.15,4.51,9.76,1.8,12s-97.76,9.13-105,9.13-154,8.51-154,8.51Z"/><path class="cls-7" d="M109.72,201.48,109,232.3s-19.52,81.73-20.89,85-3.76,26.53-2.39,30.11,3.42,12.91,29.78,12.91-1.52.45-3.42-6.1c-2.4-8.24-4.45-8.6-1.37-10a40.62,40.62,0,0,1,17.12-3.23c6.84.36,295.1,3.23,305.71.72s17.81-2.87,16.09-16.13S435.3,260.27,435,254.89a117.22,117.22,0,0,0-1.37-13.62c-.68-3.59-6.84-2.87-8.56-1.8s-1.36,11.83-.68,16.13,2.4,18.29,4.11,23.66,6.16,36.92,7.53,39.08,7.19,12.54-13.35,13.26-261.56-2.87-274.57-2.51-42.1,1.07-45.87-2.87-2.4-8.24-1.37-11.83,14.72-67,15.06-69.54,0-9,.35-12.19-.69-6.81,2.73-8.6,8.56.36,12.33-4.3,3.42-7.89,11.3-11.47,11.3-4.31,14.72-4.66-26.36,1.43-32.87,1.07S111.43,204,109.72,201.48Z"/><path class="cls-4" d="M115.64,188.91c.3-.94-1.2-17.32,5.72-18.9s65-.63,81.21-.94,153.12-2.21,162.44-2.84,46.62,4.42,52.64,3.15,9.32-1.57,6.62-6.3-7.22-8.19-3-8.5,10.22,10.39,10.83,16.69,1.2,17.95.6,19.84S115.64,188.91,115.64,188.91Z"/><polygon class="cls-2" points="94.28 137.89 106.32 137.89 106.62 170.64 105.42 175.05 95.19 175.68 92.18 168.12 92.18 146.39 93.98 144.81 93.98 138.83 94.28 137.89"/><rect class="cls-3" x="124.5" y="133.64" width="57.47" height="1.6"/><rect class="cls-2" x="105.98" y="155.57" width="5.94" height="8.21"/><rect class="cls-3" x="105.68" y="148.83" width="6.24" height="6.74"/><rect class="cls-2" x="106.28" y="144.51" width="4.83" height="4.21"/><path class="cls-1" d="M109.78,145.33a1.62,1.62,0,0,1,1.62-1.51c1.61-.2,10.88.59,10.88.59l.88,2.9-5.72,6.2s-3.36-.2-3.69,2.25.27,2.9-1.48,3.3-1.33-2.62-1.1-3.49.7-2.91-.24-4-.48-2.51-1.48-2.64-4.07.27-4.51.07-1.81-.73-.33-.93S109.85,146.52,109.78,145.33Z"/><rect class="cls-3" x="105.68" y="152.15" width="1.03" height="11.12"/><path class="cls-2" d="M121.14,144.3S58,90,17.5,97.39s0,14.69,14.57,18.65,78.82,18.65,76.12,28.26"/><rect class="cls-2" x="114.34" y="155.76" width="312.92" height="1.16"/><path class="cls-3" d="M349.6,111.86v-2.77a2.11,2.11,0,0,0-2.05-2.15h-2.8a2.11,2.11,0,0,0-2.06,2.15v2.77H200.15v-2.23a2.1,2.1,0,0,0-2.05-2.15h-2.81a2.1,2.1,0,0,0-2,2.15v2.23H179.63l.18,1.17,13.43.19v3.17a2.11,2.11,0,0,0,2,2.15h2.81a2.11,2.11,0,0,0,2.05-2.15v-3.17H342.69v2.63a2.1,2.1,0,0,0,2.06,2.15h2.8a2.1,2.1,0,0,0,2.05-2.15v-2.63l13.59.19.36-1.55Z"/><rect class="cls-2" x="184.39" y="153.69" width="176.99" height="0.84"/><rect class="cls-1" x="422.26" y="150.74" width="3.29" height="4.34"/><rect class="cls-2" x="121.11" y="134.63" width="1.37" height="10.15"/><rect class="cls-1" x="124.57" y="133.2" width="57.32" height="0.46"/><polygon class="cls-3" points="155.99 127.72 169.45 127.72 169.45 132.63 155.86 132.63 155.99 127.72"/><rect class="cls-2" x="158.81" y="106.31" width="1.83" height="49.74"/><rect class="cls-2" x="158.81" y="106.31" width="215.59" height="1.37"/><rect class="cls-2" x="374.41" y="106.31" width="1.3" height="49.47"/><rect class="cls-3" x="373.62" y="107.54" width="0.78" height="48.14"/><rect class="cls-3" x="160.54" y="107.68" width="0.98" height="48"/><path class="cls-2" d="M193.66,110.5a2.11,2.11,0,0,1-2.06,2.16h-2.8a2.11,2.11,0,0,1-2.05-2.16v-6.76a2.1,2.1,0,0,1,2.05-2.15h2.8a2.1,2.1,0,0,1,2.06,2.15Z"/><path class="cls-3" d="M191.83,108.61a1.63,1.63,0,1,1-3.25,0V105a1.63,1.63,0,1,1,3.25,0Z"/><path class="cls-2" d="M354.17,110.31a2.1,2.1,0,0,1-2.05,2.15h-2.8a2.1,2.1,0,0,1-2.06-2.15v-6.77a2.11,2.11,0,0,1,2.06-2.15h2.8a2.11,2.11,0,0,1,2.05,2.15Z"/><path class="cls-3" d="M352.34,108.42a1.63,1.63,0,1,1-3.25,0V104.8a1.63,1.63,0,1,1,3.25,0Z"/><rect class="cls-3" x="111.15" y="195.54" width="321.08" height="3.06"/><rect class="cls-2" x="111.1" y="194.01" width="320.84" height="1.53"/><rect class="cls-2" x="110.22" y="198.59" width="320.84" height="1.53"/><path class="cls-3" d="M120.87,189.73s-8.92-1.22-9.82,0-1.62,10.05-.9,11,3.26,2.2,6.39,2.56a37.5,37.5,0,0,0,8.07,0c3-.23,5.23-1.4,3-2.7s-5.66-2.6-5.1-4.85.47-2.92,1.84-3.59S122.2,189.68,120.87,189.73Z"/><path class="cls-3" d="M429.16,195.53s-1-2.25,0-2.49,2.43-1.48,3.3-.47a7.08,7.08,0,0,1,1.78,5.36c-.27,2.44-.09,4.26-1.42,5.08s-2.33,1.91-3.2.43-.91-1.68-1.83-1.92-.82-1.53.55-2.2S429.67,196.2,429.16,195.53Z"/><rect class="cls-2" x="338.39" y="205.47" width="55.98" height="3.93"/><rect class="cls-2" x="239.93" y="205.21" width="60.23" height="3.93"/><rect class="cls-2" x="118.09" y="204.95" width="60.23" height="3.93"/><rect class="cls-1" x="163.45" y="207.57" width="6.25" height="4.71"/><rect class="cls-3" x="162.2" y="206.79" width="5.5" height="4.45"/><rect class="cls-1" x="285.67" y="208.1" width="6.25" height="4.71"/><rect class="cls-3" x="284.42" y="207.31" width="5.5" height="4.45"/><rect class="cls-1" x="375.64" y="208.1" width="6.25" height="4.71"/><rect class="cls-3" x="374.39" y="207.31" width="5.5" height="4.45"/><path class="cls-3" d="M98.67,168.7c0,1.59-.7,2.89-1.56,2.89h0c-.86,0-1.56-1.3-1.56-2.89V144.08c0-1.6.7-2.89,1.56-2.89h0c.86,0,1.56,1.29,1.56,2.89Z"/><path class="cls-2" d="M146.06,119.33s.24-9-7-5-3.36,7.78-7.68,9.29-4.56-1.14-5.16-7.48-7.32-18.4-11.64-9.85-.72,13.06,3.36,13.31,7.44,3.77,5.52,7.79,6.68,7.14,13.18,6"/><path class="cls-3" d="M429.9,144.71s6.23,1,6,8.29l-.24,7.28S443.09,141.19,429.9,144.71Z"/><path class="cls-2" d="M397,121.65c-.06,0,10.8-11.11,12.72-5.08s3.42,7.93,7,3.59,14.36,14.75-11.79,15.25S412.12,120.2,397,121.65Z"/><path class="cls-8" d="M152.86,247.4c0,5-3.52,9-7.86,9s-7.86-4-7.86-9,3.52-9,7.86-9S152.86,242.43,152.86,247.4Z"/><path class="cls-9" d="M152.86,245.79c0,5-3.52,9-7.86,9s-7.86-4-7.86-9,3.52-9,7.86-9S152.86,240.83,152.86,245.79Z"/><path class="cls-8" d="M175,247.4c0,5-3.52,9-7.86,9s-7.87-4-7.87-9,3.52-9,7.87-9S175,242.43,175,247.4Z"/><path class="cls-9" d="M175,245.79c0,5-3.52,9-7.86,9s-7.87-4-7.87-9,3.52-9,7.87-9S175,240.83,175,245.79Z"/><path class="cls-8" d="M197.59,247.4c0,5-3.52,9-7.86,9s-7.87-4-7.87-9,3.52-9,7.87-9S197.59,242.43,197.59,247.4Z"/><path class="cls-9" d="M197.59,245.79c0,5-3.52,9-7.86,9s-7.87-4-7.87-9,3.52-9,7.87-9S197.59,240.83,197.59,245.79Z"/><path class="cls-8" d="M219.71,247.4c0,5-3.53,9-7.87,9s-7.86-4-7.86-9,3.52-9,7.86-9S219.71,242.43,219.71,247.4Z"/><path class="cls-9" d="M219.71,245.79c0,5-3.53,9-7.87,9s-7.86-4-7.86-9,3.52-9,7.86-9S219.71,240.83,219.71,245.79Z"/><path class="cls-8" d="M241.33,247.4c0,5-3.52,9-7.86,9s-7.87-4-7.87-9,3.52-9,7.87-9S241.33,242.43,241.33,247.4Z"/><path class="cls-9" d="M241.33,245.79c0,5-3.52,9-7.86,9s-7.87-4-7.87-9,3.52-9,7.87-9S241.33,240.83,241.33,245.79Z"/><path class="cls-8" d="M263.45,247.4c0,5-3.52,9-7.87,9s-7.86-4-7.86-9,3.52-9,7.86-9S263.45,242.43,263.45,247.4Z"/><path class="cls-9" d="M263.45,245.79c0,5-3.52,9-7.87,9s-7.86-4-7.86-9,3.52-9,7.86-9S263.45,240.83,263.45,245.79Z"/><path class="cls-8" d="M286.05,247.4c0,5-3.52,9-7.86,9s-7.86-4-7.86-9,3.52-9,7.86-9S286.05,242.43,286.05,247.4Z"/><path class="cls-9" d="M286.05,245.79c0,5-3.52,9-7.86,9s-7.86-4-7.86-9,3.52-9,7.86-9S286.05,240.83,286.05,245.79Z"/><path class="cls-8" d="M308.17,247.4c0,5-3.52,9-7.86,9s-7.87-4-7.87-9,3.52-9,7.87-9S308.17,242.43,308.17,247.4Z"/><path class="cls-9" d="M308.17,245.79c0,5-3.52,9-7.86,9s-7.87-4-7.87-9,3.52-9,7.87-9S308.17,240.83,308.17,245.79Z"/><path class="cls-8" d="M328.5,247.4c0,5-3.52,9-7.87,9s-7.86-4-7.86-9,3.52-9,7.86-9S328.5,242.43,328.5,247.4Z"/><path class="cls-9" d="M328.5,245.79c0,5-3.52,9-7.87,9s-7.86-4-7.86-9,3.52-9,7.86-9S328.5,240.83,328.5,245.79Z"/><path class="cls-8" d="M350.61,247.4c0,5-3.52,9-7.86,9s-7.87-4-7.87-9,3.53-9,7.87-9S350.61,242.43,350.61,247.4Z"/><path class="cls-9" d="M350.61,245.79c0,5-3.52,9-7.86,9s-7.87-4-7.87-9,3.53-9,7.87-9S350.61,240.83,350.61,245.79Z"/><path class="cls-8" d="M373.22,247.4c0,5-3.52,9-7.86,9s-7.87-4-7.87-9,3.52-9,7.87-9S373.22,242.43,373.22,247.4Z"/><path class="cls-9" d="M373.22,245.79c0,5-3.52,9-7.86,9s-7.87-4-7.87-9,3.52-9,7.87-9S373.22,240.83,373.22,245.79Z"/><path class="cls-8" d="M395.34,247.4c0,5-3.52,9-7.87,9s-7.86-4-7.86-9,3.52-9,7.86-9S395.34,242.43,395.34,247.4Z"/><path class="cls-9" d="M395.34,245.79c0,5-3.52,9-7.87,9s-7.86-4-7.86-9,3.52-9,7.86-9S395.34,240.83,395.34,245.79Z"/><path class="cls-8" d="M151.78,314.52c0,5-3.52,9-7.86,9s-7.86-4-7.86-9,3.52-9,7.86-9S151.78,309.56,151.78,314.52Z"/><path class="cls-9" d="M151.78,312.91c0,5-3.52,9-7.86,9s-7.86-4-7.86-9,3.52-9,7.86-9S151.78,308,151.78,312.91Z"/><path class="cls-8" d="M173.9,314.52c0,5-3.52,9-7.86,9s-7.87-4-7.87-9,3.52-9,7.87-9S173.9,309.56,173.9,314.52Z"/><path class="cls-9" d="M173.9,312.91c0,5-3.52,9-7.86,9s-7.87-4-7.87-9,3.52-9,7.87-9S173.9,308,173.9,312.91Z"/><path class="cls-8" d="M196.51,314.52c0,5-3.52,9-7.86,9s-7.87-4-7.87-9,3.52-9,7.87-9S196.51,309.56,196.51,314.52Z"/><path class="cls-9" d="M196.51,312.91c0,5-3.52,9-7.86,9s-7.87-4-7.87-9,3.52-9,7.87-9S196.51,308,196.51,312.91Z"/><path class="cls-8" d="M218.63,314.52c0,5-3.53,9-7.87,9s-7.86-4-7.86-9,3.52-9,7.86-9S218.63,309.56,218.63,314.52Z"/><path class="cls-9" d="M218.63,312.91c0,5-3.53,9-7.87,9s-7.86-4-7.86-9,3.52-9,7.86-9S218.63,308,218.63,312.91Z"/><path class="cls-8" d="M240.25,314.52c0,5-3.52,9-7.86,9s-7.87-4-7.87-9,3.52-9,7.87-9S240.25,309.56,240.25,314.52Z"/><path class="cls-9" d="M240.25,312.91c0,5-3.52,9-7.86,9s-7.87-4-7.87-9,3.52-9,7.87-9S240.25,308,240.25,312.91Z"/><path class="cls-8" d="M262.37,314.52c0,5-3.52,9-7.87,9s-7.86-4-7.86-9,3.52-9,7.86-9S262.37,309.56,262.37,314.52Z"/><path class="cls-9" d="M262.37,312.91c0,5-3.52,9-7.87,9s-7.86-4-7.86-9,3.52-9,7.86-9S262.37,308,262.37,312.91Z"/><path class="cls-8" d="M285,314.52c0,5-3.52,9-7.86,9s-7.86-4-7.86-9,3.52-9,7.86-9S285,309.56,285,314.52Z"/><path class="cls-9" d="M285,312.91c0,5-3.52,9-7.86,9s-7.86-4-7.86-9,3.52-9,7.86-9S285,308,285,312.91Z"/><path class="cls-8" d="M307.09,314.52c0,5-3.52,9-7.86,9s-7.87-4-7.87-9,3.52-9,7.87-9S307.09,309.56,307.09,314.52Z"/><path class="cls-9" d="M307.09,312.91c0,5-3.52,9-7.86,9s-7.87-4-7.87-9,3.52-9,7.87-9S307.09,308,307.09,312.91Z"/><path class="cls-8" d="M327.42,314.52c0,5-3.52,9-7.87,9s-7.86-4-7.86-9,3.52-9,7.86-9S327.42,309.56,327.42,314.52Z"/><path class="cls-9" d="M327.42,312.91c0,5-3.52,9-7.87,9s-7.86-4-7.86-9,3.52-9,7.86-9S327.42,308,327.42,312.91Z"/><path class="cls-8" d="M349.53,314.52c0,5-3.52,9-7.86,9s-7.86-4-7.86-9,3.52-9,7.86-9S349.53,309.56,349.53,314.52Z"/><path class="cls-9" d="M349.53,312.91c0,5-3.52,9-7.86,9s-7.86-4-7.86-9,3.52-9,7.86-9S349.53,308,349.53,312.91Z"/><path class="cls-8" d="M372.14,314.52c0,5-3.52,9-7.86,9s-7.87-4-7.87-9,3.52-9,7.87-9S372.14,309.56,372.14,314.52Z"/><path class="cls-9" d="M372.14,312.91c0,5-3.52,9-7.86,9s-7.87-4-7.87-9,3.52-9,7.87-9S372.14,308,372.14,312.91Z"/><path class="cls-8" d="M394.26,314.52c0,5-3.52,9-7.87,9s-7.86-4-7.86-9,3.52-9,7.86-9S394.26,309.56,394.26,314.52Z"/><path class="cls-9" d="M394.26,312.91c0,5-3.52,9-7.87,9s-7.86-4-7.86-9,3.52-9,7.86-9S394.26,308,394.26,312.91Z"/><path class="cls-8" d="M139.6,271.31c0,5-3.53,9-7.87,9s-7.86-4-7.86-9,3.52-9,7.86-9S139.6,266.35,139.6,271.31Z"/><path class="cls-9" d="M139.6,269.71c0,5-3.53,9-7.87,9s-7.86-4-7.86-9,3.52-9,7.86-9S139.6,264.75,139.6,269.71Z"/><path class="cls-8" d="M161.71,271.31c0,5-3.52,9-7.86,9s-7.87-4-7.87-9,3.52-9,7.87-9S161.71,266.35,161.71,271.31Z"/><ellipse class="cls-9" cx="153.85" cy="269.71" rx="7.86" ry="8.98"/><path class="cls-8" d="M184.32,271.31c0,5-3.52,9-7.86,9s-7.87-4-7.87-9,3.52-9,7.87-9S184.32,266.35,184.32,271.31Z"/><path class="cls-9" d="M184.32,269.71c0,5-3.52,9-7.86,9s-7.87-4-7.87-9,3.52-9,7.87-9S184.32,264.75,184.32,269.71Z"/><path class="cls-8" d="M206.44,271.31c0,5-3.53,9-7.87,9s-7.86-4-7.86-9,3.52-9,7.86-9S206.44,266.35,206.44,271.31Z"/><path class="cls-9" d="M206.44,269.71c0,5-3.53,9-7.87,9s-7.86-4-7.86-9,3.52-9,7.86-9S206.44,264.75,206.44,269.71Z"/><path class="cls-8" d="M228.06,271.31c0,5-3.52,9-7.86,9s-7.87-4-7.87-9,3.52-9,7.87-9S228.06,266.35,228.06,271.31Z"/><path class="cls-9" d="M228.06,269.71c0,5-3.52,9-7.86,9s-7.87-4-7.87-9,3.52-9,7.87-9S228.06,264.75,228.06,269.71Z"/><path class="cls-8" d="M250.18,271.31c0,5-3.52,9-7.87,9s-7.86-4-7.86-9,3.52-9,7.86-9S250.18,266.35,250.18,271.31Z"/><path class="cls-9" d="M250.18,269.71c0,5-3.52,9-7.87,9s-7.86-4-7.86-9,3.52-9,7.86-9S250.18,264.75,250.18,269.71Z"/><path class="cls-8" d="M272.79,271.31c0,5-3.53,9-7.87,9s-7.86-4-7.86-9,3.52-9,7.86-9S272.79,266.35,272.79,271.31Z"/><path class="cls-9" d="M272.79,269.71c0,5-3.53,9-7.87,9s-7.86-4-7.86-9,3.52-9,7.86-9S272.79,264.75,272.79,269.71Z"/><path class="cls-8" d="M294.9,271.31c0,5-3.52,9-7.86,9s-7.87-4-7.87-9,3.52-9,7.87-9S294.9,266.35,294.9,271.31Z"/><ellipse class="cls-9" cx="287.04" cy="269.71" rx="7.86" ry="8.98"/><path class="cls-8" d="M315.23,271.31c0,5-3.52,9-7.87,9s-7.86-4-7.86-9,3.52-9,7.86-9S315.23,266.35,315.23,271.31Z"/><ellipse class="cls-9" cx="307.36" cy="269.71" rx="7.86" ry="8.98"/><path class="cls-8" d="M337.34,271.31c0,5-3.52,9-7.86,9s-7.86-4-7.86-9,3.52-9,7.86-9S337.34,266.35,337.34,271.31Z"/><path class="cls-9" d="M337.34,269.71c0,5-3.52,9-7.86,9s-7.86-4-7.86-9,3.52-9,7.86-9S337.34,264.75,337.34,269.71Z"/><path class="cls-8" d="M360,271.31c0,5-3.52,9-7.86,9s-7.87-4-7.87-9,3.52-9,7.87-9S360,266.35,360,271.31Z"/><path class="cls-9" d="M360,269.71c0,5-3.52,9-7.86,9s-7.87-4-7.87-9,3.52-9,7.87-9S360,264.75,360,269.71Z"/><path class="cls-8" d="M382.07,271.31c0,5-3.52,9-7.87,9s-7.86-4-7.86-9,3.52-9,7.86-9S382.07,266.35,382.07,271.31Z"/><path class="cls-9" d="M382.07,269.71c0,5-3.52,9-7.87,9s-7.86-4-7.86-9,3.52-9,7.86-9S382.07,264.75,382.07,269.71Z"/><path class="cls-8" d="M402.71,271.31c0,5-3.52,9-7.86,9s-7.87-4-7.87-9,3.52-9,7.87-9S402.71,266.35,402.71,271.31Z"/><ellipse class="cls-9" cx="394.85" cy="269.71" rx="7.86" ry="8.98"/><path class="cls-8" d="M139.6,292.83c0,5-3.53,9-7.87,9s-7.86-4-7.86-9,3.52-9,7.86-9S139.6,287.87,139.6,292.83Z"/><path class="cls-9" d="M139.6,291.23c0,5-3.53,9-7.87,9s-7.86-4-7.86-9,3.52-9,7.86-9S139.6,286.26,139.6,291.23Z"/><path class="cls-8" d="M161.71,292.83c0,5-3.52,9-7.86,9s-7.87-4-7.87-9,3.52-9,7.87-9S161.71,287.87,161.71,292.83Z"/><ellipse class="cls-9" cx="153.85" cy="291.23" rx="7.86" ry="8.98"/><path class="cls-8" d="M184.32,292.83c0,5-3.52,9-7.86,9s-7.87-4-7.87-9,3.52-9,7.87-9S184.32,287.87,184.32,292.83Z"/><path class="cls-9" d="M184.32,291.23c0,5-3.52,9-7.86,9s-7.87-4-7.87-9,3.52-9,7.87-9S184.32,286.26,184.32,291.23Z"/><path class="cls-8" d="M206.44,292.83c0,5-3.53,9-7.87,9s-7.86-4-7.86-9,3.52-9,7.86-9S206.44,287.87,206.44,292.83Z"/><path class="cls-9" d="M206.44,291.23c0,5-3.53,9-7.87,9s-7.86-4-7.86-9,3.52-9,7.86-9S206.44,286.26,206.44,291.23Z"/><path class="cls-8" d="M228.06,292.83c0,5-3.52,9-7.86,9s-7.87-4-7.87-9,3.52-9,7.87-9S228.06,287.87,228.06,292.83Z"/><path class="cls-9" d="M228.06,291.23c0,5-3.52,9-7.86,9s-7.87-4-7.87-9,3.52-9,7.87-9S228.06,286.26,228.06,291.23Z"/><path class="cls-8" d="M250.18,292.83c0,5-3.52,9-7.87,9s-7.86-4-7.86-9,3.52-9,7.86-9S250.18,287.87,250.18,292.83Z"/><path class="cls-9" d="M250.18,291.23c0,5-3.52,9-7.87,9s-7.86-4-7.86-9,3.52-9,7.86-9S250.18,286.26,250.18,291.23Z"/><path class="cls-8" d="M272.79,292.83c0,5-3.53,9-7.87,9s-7.86-4-7.86-9,3.52-9,7.86-9S272.79,287.87,272.79,292.83Z"/><path class="cls-9" d="M272.79,291.23c0,5-3.53,9-7.87,9s-7.86-4-7.86-9,3.52-9,7.86-9S272.79,286.26,272.79,291.23Z"/><path class="cls-8" d="M294.9,292.83c0,5-3.52,9-7.86,9s-7.87-4-7.87-9,3.52-9,7.87-9S294.9,287.87,294.9,292.83Z"/><ellipse class="cls-9" cx="287.04" cy="291.23" rx="7.86" ry="8.98"/><path class="cls-8" d="M315.23,292.83c0,5-3.52,9-7.87,9s-7.86-4-7.86-9,3.52-9,7.86-9S315.23,287.87,315.23,292.83Z"/><ellipse class="cls-9" cx="307.36" cy="291.23" rx="7.86" ry="8.98"/><path class="cls-8" d="M337.34,292.83c0,5-3.52,9-7.86,9s-7.86-4-7.86-9,3.52-9,7.86-9S337.34,287.87,337.34,292.83Z"/><path class="cls-9" d="M337.34,291.23c0,5-3.52,9-7.86,9s-7.86-4-7.86-9,3.52-9,7.86-9S337.34,286.26,337.34,291.23Z"/><path class="cls-8" d="M360,292.83c0,5-3.52,9-7.86,9s-7.87-4-7.87-9,3.52-9,7.87-9S360,287.87,360,292.83Z"/><path class="cls-9" d="M360,291.23c0,5-3.52,9-7.86,9s-7.87-4-7.87-9,3.52-9,7.87-9S360,286.26,360,291.23Z"/><path class="cls-8" d="M382.07,292.83c0,5-3.52,9-7.87,9s-7.86-4-7.86-9,3.52-9,7.86-9S382.07,287.87,382.07,292.83Z"/><path class="cls-9" d="M382.07,291.23c0,5-3.52,9-7.87,9s-7.86-4-7.86-9,3.52-9,7.86-9S382.07,286.26,382.07,291.23Z"/><path class="cls-8" d="M402.71,292.83c0,5-3.52,9-7.86,9s-7.87-4-7.87-9,3.52-9,7.87-9S402.71,287.87,402.71,292.83Z"/><ellipse class="cls-9" cx="394.85" cy="291.23" rx="7.86" ry="8.98"/><path class="cls-8" d="M429.15,317.75c.23,2.48-3.31,2.45-5.69,2.69h0a4.38,4.38,0,0,1-4.72-4.06l-4.41-47.25a4.47,4.47,0,0,1,3.88-4.94h0a4.37,4.37,0,0,1,4.72,4.06Z"/><path class="cls-9" d="M428.37,315.81c.23,2.49-3.32,2.45-5.69,2.69h0a4.37,4.37,0,0,1-4.72-4.06l-4.41-47.25a4.47,4.47,0,0,1,3.88-4.94h0a4.38,4.38,0,0,1,4.72,4.06Z"/></g></g></svg>