<svg xmlns="http://www.w3.org/2000/svg" viewBox="0 0 243.78 249.98"><defs><style>.cls-1{fill:#00a2fc;}.cls-2{fill:#c2bebc;}.cls-3{fill:#5fc6ff;}.cls-4{fill:#d6d6d6;}.cls-5{fill:#e8e8e8;}.cls-6{fill:#c2c2c2;}.cls-7{fill:#2878bd;}.cls-8{fill:#155682;}.cls-9{fill:#1c6799;}.cls-10{fill:#36c2ff;}.cls-11{fill:#005d91;}.cls-12{fill:#e3f2ff;}.cls-13{fill:#00a4ff;}.cls-14{fill:#f5f5f5;}.cls-15{fill:#ebebeb;}.cls-16{fill:#dedede;}.cls-17{fill:#292c47;}.cls-18{fill:#eea886;}.cls-19{fill:#ead8cf;}.cls-20{fill:#da9b5b;}.cls-21{fill:#424773;}.cls-22{fill:#3a3f47;}.cls-23{fill:#e2d2ca;}.cls-24{fill:#323657;}.cls-25{fill:#252840;}.cls-26{fill:#5377b3;}.cls-27{fill:#5b83c2;}.cls-28{fill:#2f4563;}.cls-29{fill:#354c70;}.cls-30{fill:#2b3b57;}.cls-31{fill:#ff7415;}.cls-32{fill:#353a3d;}.cls-33{fill:#e26f54;}.cls-34{fill:#ffc28f;}.cls-35{fill:#cf8c6c;}.cls-36{fill:#3b3f66;}.cls-37{fill:#555c94;}.cls-38{fill:#dd743a;}.cls-39{fill:#d9d0c4;}.cls-40{fill:#eea987;}.cls-41{fill:#494f80;}.cls-42{fill:#fccca2;}.cls-43{fill:#c48a6f;}.cls-44{fill:#1da4ff;}.cls-45{fill:#db9c7c;}.cls-46{fill:#b0573a;}</style></defs><title>Illustration</title><g id="Layer_2" data-name="Layer 2"><g id="Layer_1-2" data-name="Layer 1"><path class="cls-1" d="M117.72,212.45h-27V102.76h27.05ZM91,212.08h26.33v-109H91Z"/><path class="cls-2" d="M224.94,154.41l-.33-.17a7.16,7.16,0,0,1,.71-.87l1-1.13.28.24-1,1.13A6.37,6.37,0,0,0,224.94,154.41Zm3.23-4-.3-.22c.51-.67,1-1.38,1.48-2.09l.3.2C229.17,149.06,228.68,149.77,228.17,150.45ZM7.71,147.78l-.06-.07.27-.25.06.07ZM231,146.16l-.32-.19c.43-.72.85-1.48,1.25-2.23l.32.17C231.87,144.67,231.45,145.43,231,146.16ZM6,145.69a25.63,25.63,0,0,1-1.38-2.19l.32-.18a23.3,23.3,0,0,0,1.36,2.15Zm227.38-4.1-.33-.15c.35-.77.7-1.55,1-2.35l.34.14C234.11,140,233.77,140.82,233.41,141.59ZM3.47,141.2c-.36-.76-.7-1.56-1-2.37l.34-.13c.31.8.64,1.59,1,2.35Zm231.88-4.38-.34-.12c.28-.79.55-1.61.8-2.43l.35.11C235.91,135.2,235.64,136,235.35,136.82ZM1.62,136.39c-.25-.82-.48-1.66-.67-2.49l.36-.09c.19.83.41,1.66.66,2.47Zm235.24-4.49-.35-.09c.21-.82.41-1.65.59-2.49l.36.08C237.28,130.24,237.08,131.08,236.86,131.9ZM.45,131.37c-.14-.86-.25-1.72-.32-2.57l.36,0c.08.84.18,1.69.32,2.54ZM238,126.87l-.36-.06c.14-.83.28-1.68.4-2.53l.36,0C238.24,125.18,238.11,126,238,126.87ZM0,126.22v-.34c0-.75,0-1.5.08-2.24l.37,0c-.06.72-.08,1.47-.08,2.21v.34Zm238.67-4.44-.37,0c.09-.84.16-1.7.22-2.55l.36,0C238.82,120.07,238.75,120.93,238.67,121.78ZM.74,121.13l-.36,0a25.75,25.75,0,0,1,.52-2.53l.36.09C1.05,119.45.87,120.29.74,121.13ZM239,116.64h-.36c0-.84,0-1.7,0-2.56h.37C239.06,114.93,239,115.8,239,116.64ZM2,116.21l-.35-.13c.3-.81.65-1.61,1-2.38l.33.17A23.17,23.17,0,0,0,2,116.21Zm2.24-4.57L4,111.45a24.25,24.25,0,0,1,1.49-2.11l.29.22A24.47,24.47,0,0,0,4.26,111.64Zm234.4-.13c0-.85-.06-1.71-.11-2.56l.37,0c.05.86.09,1.72.11,2.57ZM7.4,107.64l-.26-.25c.59-.61,1.22-1.21,1.88-1.77l.24.28C8.61,106.46,8,107,7.4,107.64Zm231-1.25c-.07-.84-.15-1.7-.24-2.55l.36,0c.09.86.18,1.72.25,2.56Zm-227.1-2.06-.22-.29c.69-.49,1.42-1,2.16-1.41l.19.31C12.66,103.38,11.94,103.85,11.27,104.33Zm4.37-2.61-.16-.33c.75-.37,1.54-.73,2.34-1.07l.14.34C17.17,101,16.39,101.35,15.64,101.72Zm222.17-.42c-.11-.84-.24-1.69-.38-2.54l.37-.06c.13.85.26,1.71.37,2.55ZM20.35,99.74l-.13-.34c.8-.28,1.62-.55,2.46-.79l.1.35C22,99.2,21.13,99.47,20.35,99.74Zm4.9-1.44-.09-.36c.82-.19,1.66-.38,2.52-.55l.07.36C26.9,97.92,26.06,98.1,25.25,98.3Zm5-1-.06-.37c.83-.13,1.69-.25,2.55-.35l0,.36C32,97.06,31.09,97.18,30.27,97.31Zm5.08-.63,0-.36h0c.84-.07,1.68-.16,2.51-.26l0,.36q-1.26.15-2.52.27ZM237,96.24c-.06-.3-.11-.6-.17-.9-.1-.54-.22-1.08-.33-1.62l.36-.07c.11.53.23,1.08.33,1.63.06.29.11.59.17.89ZM40.46,96.07l-.06-.37c.84-.12,1.69-.26,2.53-.42l.06.37C42.15,95.8,41.3,95.94,40.46,96.07Zm5-.92-.07-.36c.83-.18,1.67-.37,2.49-.57l.09.35C47.19,94.78,46.35,95,45.51,95.15Zm5-1.22-.1-.36c.82-.22,1.64-.46,2.46-.71l.11.35C52.16,93.46,51.33,93.7,50.51,93.93Zm4.91-1.51-.11-.35c.8-.27,1.61-.56,2.41-.85l.13.34C57,91.86,56.23,92.15,55.42,92.42Zm180.5-1.19c-.2-.83-.43-1.66-.66-2.48l.36-.1c.23.82.45,1.66.66,2.49ZM60.25,90.64l-.14-.34c.79-.31,1.58-.64,2.37-1l.15.33C61.84,90,61,90.33,60.25,90.64Zm4.73-2-.15-.34c.76-.35,1.54-.71,2.32-1.09l.16.33C66.53,87.91,65.75,88.27,65,88.63Zm4.62-2.24-.16-.32,2.26-1.19.17.33C71.12,85.61,70.35,86,69.6,86.39Zm164.92-.09c-.26-.81-.54-1.62-.83-2.42l.35-.12c.29.8.57,1.61.83,2.43ZM74.13,84,74,83.66l2.22-1.27.19.32Zm158.65-2.49c-.32-.79-.66-1.59-1-2.36l.33-.15c.35.78.69,1.58,1,2.37ZM78.57,81.4l-.19-.31,2.19-1.33.19.31Zm4.36-2.7-.19-.31c.7-.44,1.42-.91,2.15-1.39l.2.31C84.36,77.79,83.63,78.26,82.93,78.7Zm147.76-1.89c-.37-.76-.77-1.53-1.17-2.27l.32-.18c.41.75.8,1.52,1.18,2.29ZM87.24,75.9,87,75.59l2.13-1.42.21.3ZM91.49,73l-.21-.31c.71-.48,1.42-1,2.12-1.45l.21.3Zm136.77-.72c-.43-.73-.88-1.47-1.34-2.18l.31-.2c.46.72.91,1.46,1.35,2.19ZM95.72,70.11l-.21-.3,2.1-1.46.21.3ZM225.49,68c-.49-.7-1-1.39-1.52-2.07l.29-.22c.52.68,1,1.38,1.53,2.08ZM99.93,67.18l-.21-.3,2.1-1.46.21.3Zm4.21-2.92-.21-.3,2.12-1.45.21.3Zm118.23-.32c-.55-.66-1.11-1.31-1.68-1.94l.27-.25c.57.64,1.14,1.29,1.69,2Zm-114-2.56-.21-.3,2.14-1.42.2.3Zm110.55-1.24c-.59-.61-1.21-1.21-1.83-1.79l.25-.27c.63.58,1.25,1.19,1.84,1.8ZM112.66,58.57l-.2-.31c.73-.47,1.46-.94,2.17-1.38l.19.32ZM215.2,56.63c-.64-.55-1.3-1.1-2-1.63l.23-.29c.67.54,1.34,1.09,2,1.65ZM117,55.85l-.19-.31,2.2-1.32.19.32Zm94.2-2.4c-.68-.5-1.39-1-2.09-1.46l.2-.31c.71.48,1.42,1,2.11,1.48Zm-89.78-.19-.18-.32c.75-.42,1.51-.84,2.24-1.23l.18.32Zm4.5-2.42-.16-.33c.77-.39,1.54-.78,2.3-1.14l.16.33C127.46,50.06,126.69,50.45,125.92,50.84Zm81-.23c-.73-.44-1.47-.88-2.21-1.29l.18-.32c.74.42,1.49.85,2.22,1.3Zm-76.42-2-.15-.33c.78-.36,1.57-.71,2.35-1l.14.33Zm72-.5c-.75-.38-1.53-.75-2.3-1.11l.15-.33c.78.35,1.56.73,2.32,1.12Zm-67.23-1.49-.13-.34c.8-.32,1.61-.62,2.41-.9l.12.34C136.87,46,136.06,46.31,135.26,46.62ZM197.84,46c-.78-.32-1.58-.63-2.38-.93l.13-.34c.8.29,1.61.61,2.39.94Zm-57.75-1.08-.11-.34c.82-.27,1.65-.52,2.46-.75l.1.35C141.73,44.38,140.91,44.63,140.09,44.89Zm52.95-.7c-.8-.26-1.63-.52-2.44-.75l.1-.35c.82.23,1.65.49,2.46.76Zm-48-.71-.09-.36,1.16-.28,1.35-.31.08.36-1.34.31Zm43.11-.71c-.82-.21-1.66-.4-2.49-.58l.08-.36c.84.18,1.68.38,2.5.58ZM150,42.36l-.07-.36c.84-.17,1.69-.32,2.53-.47l.06.36C151.7,42,150.85,42.19,150,42.36Zm33.11-.66c-.84-.15-1.69-.29-2.53-.41l0-.37c.85.13,1.7.26,2.54.41Zm-28.06-.21-.05-.37c.85-.12,1.7-.24,2.55-.34l0,.36C156.76,41.25,155.91,41.36,155.06,41.49Zm23-.53c-.84-.09-1.7-.17-2.55-.24l0-.37c.85.07,1.71.15,2.56.25Zm-17.9-.09,0-.37,2.57-.21,0,.37Zm12.79-.32c-.84,0-1.7-.07-2.56-.08V40.1c.86,0,1.72,0,2.57.09Zm-7.68,0v-.36c.85,0,1.72-.06,2.57-.07v.37C167,40.47,166.11,40.49,165.26,40.52Z"/><path class="cls-3" d="M195.42,28.05a17.79,17.79,0,0,0-1.9-4.58l1.93-2.91-2.68-2.68-2.68-2.68-2.91,1.93a17.79,17.79,0,0,0-4.58-1.9l-.69-3.42h-7.59l-.69,3.42a17.93,17.93,0,0,0-4.58,1.9l-2.9-1.93-2.69,2.68-2.68,2.68,1.93,2.91a17.79,17.79,0,0,0-1.9,4.58l-3.42.69v7.59l3.42.69a17.87,17.87,0,0,0,1.9,4.57l-1.93,2.91,2.68,2.69,2.69,2.68,2.9-1.93a18.3,18.3,0,0,0,4.58,1.9l.69,3.42h7.59l.69-3.42a18.14,18.14,0,0,0,4.58-1.9l2.91,1.93,2.68-2.68,2.68-2.69-1.93-2.91a17.87,17.87,0,0,0,1.9-4.57l3.42-.69V28.74Zm-17.3,17.78a13.3,13.3,0,1,1,13.29-13.3A13.29,13.29,0,0,1,178.12,45.83Z"/><path class="cls-1" d="M29,126.66a2.6,2.6,0,0,0,.31.25l-.25.31-6.58,8.26-.31-.24L28.72,127Z"/><path class="cls-1" d="M59.6,118.78c0,.13,0,.26.07.39l-.38.07-24.82,4.69-.39.08a2.66,2.66,0,0,0-.07-.39l.39-.08,24.81-4.69Z"/><path class="cls-1" d="M77.45,93.48l-.2.35L64.57,115.51l-.2.34a3.79,3.79,0,0,0-.34-.2l.2-.34L76.91,93.63l.2-.34A2.27,2.27,0,0,0,77.45,93.48Z"/><path class="cls-1" d="M105.78,82.24l.06.19L81.82,90l-.06-.19-.06-.19,24-7.57Z"/><path class="cls-1" d="M120.45,56.64,110.36,78.26l-.17.36-.36-.17.17-.35,10.1-21.63Z"/><path class="cls-1" d="M30,121.07a3.47,3.47,0,0,0-1.27,5.9l.31.25a3.47,3.47,0,0,0,5.44-3.29,2.66,2.66,0,0,0-.07-.39l-.06-.2A3.47,3.47,0,0,0,30,121.07ZM34.08,124a3.07,3.07,0,0,1-4.8,2.9,2.6,2.6,0,0,1-.31-.25,3,3,0,0,1-.87-1.35A3.08,3.08,0,0,1,34,123.46c0,.05,0,.1,0,.16A2.66,2.66,0,0,1,34.08,124Z"/><path class="cls-1" d="M64.57,115.51a3.79,3.79,0,0,0-.34-.2,3.43,3.43,0,0,0-2.62-.22,3.48,3.48,0,0,0-2.4,3.76,2.7,2.7,0,0,0,.08.39,1.17,1.17,0,0,0,.05.2A3.47,3.47,0,1,0,66,117.36,3.39,3.39,0,0,0,64.57,115.51Zm-1,5.82a3.08,3.08,0,0,1-3.86-2c0-.06,0-.11,0-.16s-.05-.26-.07-.39A3.08,3.08,0,0,1,64,115.65a3.79,3.79,0,0,1,.34.2,3.07,3.07,0,0,1-.79,5.48Z"/><path class="cls-1" d="M82.07,89.51a3.47,3.47,0,1,0-5.16,4.12,3.79,3.79,0,0,0,.34.2,3.47,3.47,0,0,0,4.94-4,1.8,1.8,0,0,0,0-.19A1.34,1.34,0,0,0,82.07,89.51Zm-2.32,4.16a3,3,0,0,1-2.3-.19,2.27,2.27,0,0,1-.34-.19,3.08,3.08,0,1,1,4.59-3.67l.06.19.06.19A3.09,3.09,0,0,1,79.75,93.67Z"/><path class="cls-1" d="M110.36,78.26a2.83,2.83,0,0,0-.36-.16,3.47,3.47,0,0,0-4.65,4.07,1.33,1.33,0,0,0,.05.19l.06.19a3.47,3.47,0,1,0,4.9-4.29Zm-.73,6a3.08,3.08,0,0,1-3.79-1.82l-.06-.19-.06-.19a3.09,3.09,0,0,1,2.07-3.67,3.16,3.16,0,0,1,2,.07l.36.17a3.08,3.08,0,0,1-.56,5.63Z"/><path class="cls-1" d="M139.85,219.94H127.34V84h12.51Zm-11.66-.86H139V84.89h-10.8Z"/><rect class="cls-1" x="127" y="215.89" width="13.18" height="1.08" transform="translate(-85.52 87.27) rotate(-27.8)"/><rect class="cls-1" x="127" y="195.13" width="13.18" height="1.08" transform="translate(-75.83 84.88) rotate(-27.8)"/><rect class="cls-1" x="127" y="174.36" width="13.18" height="1.08" transform="translate(-66.14 82.48) rotate(-27.8)"/><rect class="cls-1" x="127" y="153.59" width="13.18" height="1.08" transform="translate(-56.48 80.15) rotate(-27.82)"/><rect class="cls-1" x="127" y="132.82" width="13.18" height="1.08" transform="translate(-46.79 77.75) rotate(-27.82)"/><rect class="cls-1" x="127" y="112.05" width="13.18" height="1.08" transform="translate(-37.09 75.32) rotate(-27.81)"/><rect class="cls-1" x="127" y="91.28" width="13.18" height="1.08" transform="translate(-27.41 72.92) rotate(-27.81)"/><path class="cls-1" d="M193.15,219.94H180.64V84h12.51Zm-11.66-.86h10.8V84.89h-10.8Z"/><rect class="cls-1" x="180.3" y="215.89" width="13.18" height="1.08" transform="translate(-79.37 112.14) rotate(-27.8)"/><rect class="cls-1" x="180.3" y="195.13" width="13.18" height="1.08" transform="translate(-69.69 109.75) rotate(-27.8)"/><rect class="cls-1" x="180.3" y="174.36" width="13.18" height="1.08" transform="translate(-60 107.35) rotate(-27.8)"/><rect class="cls-1" x="180.3" y="153.59" width="13.18" height="1.08" transform="translate(-50.33 105.03) rotate(-27.82)"/><rect class="cls-1" x="180.3" y="132.82" width="13.18" height="1.08" transform="translate(-40.64 102.63) rotate(-27.82)"/><rect class="cls-1" x="180.3" y="112.05" width="13.18" height="1.08" transform="translate(-30.94 100.19) rotate(-27.81)"/><rect class="cls-1" x="180.3" y="91.28" width="13.18" height="1.08" transform="translate(-21.25 97.8) rotate(-27.81)"/><polygon class="cls-4" points="15.27 153 3.75 147.73 7.52 147.17 15.27 153"/><polygon class="cls-5" points="15.27 153 11.44 147.82 8.59 147.97 15.27 153"/><polygon class="cls-6" points="6.4 148.94 6.29 150.34 15.27 153 6.4 148.94"/><polygon class="cls-3" points="205.44 154.61 222.25 154.61 222.25 166.79 222.25 169.36 219.69 166.79 205.44 166.79 205.44 154.61"/><rect class="cls-7" x="142.37" y="34.51" width="35.75" height="129.71"/><rect class="cls-8" x="96.51" y="111.1" width="26.69" height="109.32"/><rect class="cls-9" x="59.14" y="136.98" width="26.69" height="83.43"/><path class="cls-9" d="M81.53,215.64H54.47v-83.8H81.53Zm-26.69-.37H81.16V132.2H54.84Z"/><rect class="cls-10" x="21.76" y="162.36" width="26.69" height="58.06"/><path class="cls-10" d="M43.58,216.61h-27V158.18H43.58Zm-26.69-.37H43.22V158.55H16.89Z"/><polygon class="cls-11" points="75.03 249.19 74.62 249.17 76.67 197.89 41.34 197.89 39.29 249.19 38.88 249.17 40.95 197.48 77.09 197.48 75.03 249.19"/><polygon class="cls-11" points="78.34 249.19 76.3 197.89 40.96 197.89 43.01 249.17 42.6 249.19 40.54 197.48 76.69 197.48 78.74 249.17 78.34 249.19"/><polygon class="cls-11" points="42.8 232.5 78.54 232.5 76.49 181.01 40.75 181.01 42.8 232.5"/><polygon class="cls-12" points="73.82 232.5 38.08 232.5 40.13 181.01 75.87 181.01 73.82 232.5"/><path class="cls-3" d="M55.39,189a5.8,5.8,0,0,0-5.63-3.84,5.9,5.9,0,0,0-1.78.34,5.8,5.8,0,0,0-3.5,7.4l.14.36a6,6,0,0,0,.9,1.44,5.79,5.79,0,0,0,9.87-5.7Zm-4,6a4.34,4.34,0,0,1-4.77-1.28,4.29,4.29,0,0,1-.68-1.08c0-.09-.07-.18-.1-.27a4.33,4.33,0,0,1,2.62-5.55,4.17,4.17,0,0,1,1.33-.25A4.34,4.34,0,0,1,51.4,195Z"/><path class="cls-13" d="M160.24,0a64,64,0,0,0-17.87,34.51h35.75A64,64,0,0,0,160.24,0Z"/><path class="cls-3" d="M67.19,186.21c-.24-.28-.48-.54-.74-.8-.25.26-.5.52-.73.8l-.28-.24c.28-.33.58-.65.88-.95l.13-.13.13.13c.31.3.6.62.88.95Z"/><path class="cls-3" d="M62,224.42h-.36V222H62Zm0-4.91h-.36v-2.45H62Zm0-4.91h-.36v-2.46H62Zm0-4.91h-.36v-2.46H62Zm0-4.91h-.36v-2.46H62Zm0-4.91h-.36v-2.46H62ZM62,195h-.36v-.76h0a10.8,10.8,0,0,1,.35-1.7l.36.1A14,14,0,0,0,62,194.2Zm1.19-4.64-.34-.15A17,17,0,0,1,64,188l.31.19A16.32,16.32,0,0,0,63.14,190.31Z"/><polygon class="cls-3" points="63.05 228.34 61.59 228.34 61.59 226.88 61.95 226.88 61.95 227.98 63.05 227.98 63.05 228.34"/><rect class="cls-3" x="65.32" y="227.98" width="2.26" height="0.37"/><polygon class="cls-3" points="71.32 228.34 69.85 228.34 69.85 227.98 70.95 227.98 70.95 226.88 71.32 226.88 71.32 228.34"/><path class="cls-3" d="M71.32,224.46H71V222h.37Zm0-4.83H71v-2.42h.37Zm0-4.83H71v-2.42h.37Zm0-4.84H71v-2.41h.37Zm0-4.83H71v-2.41h.37Zm0-4.83H71v-2.41h.37Z"/><path class="cls-3" d="M71.32,195.47H71V194.2A10.85,10.85,0,0,0,70.7,193l.36-.09c.2.79.25,1.26.26,1.28v1.31Z"/><path class="cls-3" d="M69.88,190.55a18.05,18.05,0,0,0-1.18-2.27l.31-.2a17.66,17.66,0,0,1,1.2,2.33Z"/><path class="cls-14" d="M182.33,204.21a14.45,14.45,0,0,0-4.22.62,12.07,12.07,0,0,0-22.59,1.45,8.86,8.86,0,0,0-3.12-.56,8.22,8.22,0,0,0-8.42,8h50.21C194.19,208.47,188.88,204.21,182.33,204.21Z"/><path class="cls-15" d="M143,42.74a9.48,9.48,0,0,0-3,.49,8.3,8.3,0,0,0-16,1.14,5.86,5.86,0,0,0-2.22-.44,6.14,6.14,0,0,0-6,6.3h35.63C151.41,46.1,147.64,42.74,143,42.74Z"/><path class="cls-15" d="M180.51,33.78a5.73,5.73,0,0,0-1.87.31,5.26,5.26,0,0,0-4.89-3.52,5.32,5.32,0,0,0-5.1,4.23,3.54,3.54,0,0,0-1.38-.28,3.83,3.83,0,0,0-3.72,3.93h22.21A5,5,0,0,0,180.51,33.78Z"/><path class="cls-16" d="M199.39,62.07a9.23,9.23,0,0,0-3.13.54,8.87,8.87,0,0,0-8.18-6.25c-4.14,0-7.61,3.2-8.55,7.51a5.6,5.6,0,0,0-2.31-.49c-3.44,0-6.24,3.12-6.24,7h37.2A8.55,8.55,0,0,0,199.39,62.07Z"/><rect class="cls-3" x="54.45" y="200.79" width="3.4" height="27.69"/><rect class="cls-3" x="49.68" y="207.34" width="3.4" height="21.13"/><rect class="cls-3" x="44.92" y="213.77" width="3.4" height="14.7"/><polygon class="cls-17" points="41.14 184.93 49.1 189.31 57.1 176.72 47.42 173.37 41.14 184.93"/><polygon class="cls-12" points="41.64 184.55 49.09 188.65 56.57 176.88 47.52 173.74 41.64 184.55"/><path class="cls-18" d="M38.91,182.35s1.39-.66,2-1,2.17-.82,2.3-.93,4.64-.39,4.91-.63.54.55-.63.81-2.79.88-2.88,1.34,1.2.57,1.33.94,0,.29-.22.37-1.54-.66-2.13-.45-1.5-.08-2,.07l-2.67.9Z"/><path class="cls-19" d="M41.42,183.33l.71-.26s-.89-2.09-1.28-2a9.63,9.63,0,0,0-1,.21Z"/><path class="cls-20" d="M41.58,183.69c-.09-.06-1.52-2.8-1.52-2.8L37,181.3l1.65,3.24Z"/><path class="cls-18" d="M49.49,187.73s1.16-1,1.73-1.49,1.62-1.72,1.77-1.8,2.18-4.22,2.51-4.38-.31-.73-1,.27-1.92,2.3-2.39,2.2-.06-1.35-.37-1.62-.29-.08-.43.06,0,1.71-.4,2.19-.51,1.44-.84,1.81l-1.88,2.16Z"/><path class="cls-21" d="M24.41,243.75s-.25,1.75-.28,2-2.8-.16-2.8-.16l-.23-2.08A16.19,16.19,0,0,1,24.41,243.75Z"/><path class="cls-17" d="M24.16,245.54a7.64,7.64,0,0,0,1.72,1.51c.85.46,2.19.64,2.69,1.11s1.32,1.83-2.21,1.8-5.22.2-5.6-.36.55-4.18.55-4.18A7.47,7.47,0,0,0,24.16,245.54Z"/><path class="cls-21" d="M44.26,243.75s-.25,1.75-.28,2-2.8-.16-2.8-.16L41,243.52A16.19,16.19,0,0,1,44.26,243.75Z"/><path class="cls-17" d="M44,245.54a7.54,7.54,0,0,0,1.73,1.51c.84.46,4,.83,4.47,1.31s1,1.73-4,1.6c-3.52-.1-5.22.2-5.6-.36s.55-4.18.55-4.18A6.78,6.78,0,0,0,44,245.54Z"/><path class="cls-17" d="M26.71,198.82S24.1,203,24.3,206.7s-.95,7.82-1.34,11.72c-.43,4.36-2.22,14.67-2.28,17s.27,9.77.27,9.77l3.57.08s3-18,3.78-19.86,4.63-14.94,4.76-16.42S26.71,198.82,26.71,198.82Z"/><path class="cls-17" d="M40.41,199.38s2,10.25,2.22,12.54.43,11.07.56,12.5.86,18.72,1.56,20.84H40.18s-3.51-12.56-3.51-18.51S34,213.83,32.22,209.9s-5.75-4-6.82-11.29C25.4,198.61,39,197.07,40.41,199.38Z"/><path class="cls-18" d="M31.05,164.05s3.49-1.31,5.11,1.35,1.45,8-.31,8.64-4.41.31-5.31-1.35A13.33,13.33,0,0,1,28.86,167,3.49,3.49,0,0,1,31.05,164.05Z"/><path class="cls-18" d="M35.47,174.16a2.92,2.92,0,0,0,.1,1.41c.24.47-4.53.48-4.53.48a31.72,31.72,0,0,0-1.12-4.66C29.18,169.25,35.47,174.16,35.47,174.16Z"/><path class="cls-22" d="M29.92,171.39s.33.54,1.67.33,3-2,3.54-2.2.57-.52.57-.52l.35.51.59,0s-.54-1.6.28-2.25-.85-5.18-5.16-3.67c0,0-3.3.91-3.18,2.79A10.48,10.48,0,0,0,29.92,171.39Z"/><path class="cls-23" d="M35.85,175.52s0-.89-.42-1a29.7,29.7,0,0,0-4.94-.28v1S31.45,175.88,35.85,175.52Z"/><path class="cls-18" d="M35.61,168.31c-.08-.31-.88-1.21-1.19-.25s.47,2.27.9,2.16S35.8,169.11,35.61,168.31Z"/><path class="cls-24" d="M51.88,186Z"/><path class="cls-24" d="M23.77,208.68a36.79,36.79,0,0,0,5.8,1c3.65.4,12.78-.15,12.84-.58s-2-16.07-1.85-16.88.18-3.68.18-3.68a20,20,0,0,0,1.81,5.76c.35.63,1.52,2.61,2.09,2.16,2.73-2.18,7-10.41,7.24-10.48-.23-.1-2-.92-2.26-1s-2.19,2-3.39,3.31l-.91,1c-.35-.77-1.6-5.67-2-7.36-.89-3.82-.75-4-.75-4-2.67-.81-6.73-2.45-6.73-2.45l-5.36-.22a52.68,52.68,0,0,0-6.85,1.95c-.18.09-.18,4.39-.68,5.52l1.6,3.38s.93,6.71,1.12,9.69C25.77,197.21,23.77,208.68,23.77,208.68Z"/><path class="cls-24" d="M22.73,188.35c.14.45.78.83,1.19,1a1.57,1.57,0,0,0,.86.09l.21,0h0l3.67-.68s.8-9.25-5-11.47C23.49,177.3,21.45,184.21,22.73,188.35Z"/><path class="cls-25" d="M23.92,189.35h0a1.57,1.57,0,0,0,.86.09l.21,0h0l-.36-4.73Z"/><path class="cls-25" d="M45.32,189.31l.45,1.9a15.3,15.3,0,0,0,.46-2.89Z"/><path class="cls-22" d="M30.05,164.36s-4.39.45-.07,7.12Z"/><polygon class="cls-17" points="53.42 176.05 53.88 175.25 50.22 173.98 49.75 174.78 53.42 176.05"/><path class="cls-3" d="M168.89,62a8.65,8.65,0,1,1-8.65-8.64A8.65,8.65,0,0,1,168.89,62Z"/><circle class="cls-3" cx="160.24" cy="87.9" r="8.64"/><path class="cls-14" d="M166.68,87.9a6.44,6.44,0,1,1-6.44-6.44A6.44,6.44,0,0,1,166.68,87.9Z"/><path class="cls-14" d="M166.68,62a6.44,6.44,0,1,1-6.44-6.44A6.44,6.44,0,0,1,166.68,62Z"/><path class="cls-18" d="M72.76,83.89s.61-1.07-.36-3.93a2.88,2.88,0,0,0-5.19-.74c-1,1.77-.68,2.87.83,4.87S72.13,84.8,72.76,83.89Z"/><path class="cls-18" d="M65.25,133.05s-.16,1.17-.18,1.35-1.78-.11-1.78-.11l-.15-1.39A9.65,9.65,0,0,1,65.25,133.05Z"/><path class="cls-26" d="M65.09,134.25a4.58,4.58,0,0,0,1.09,1c.54.31,1.39.43,1.71.75s.84,1.23-1.4,1.21-3.32.13-3.56-.24.34-2.81.34-2.81A6.45,6.45,0,0,0,65.09,134.25Z"/><path class="cls-18" d="M77.44,133.05s-.16,1.17-.18,1.35-1.78-.11-1.78-.11l-.15-1.39A9.65,9.65,0,0,1,77.44,133.05Z"/><path class="cls-27" d="M77.28,134.25a4.58,4.58,0,0,0,1.09,1c.54.31,2.53.57,2.85.88s.61,1.16-2.54,1.08c-2.24-.07-3.32.13-3.56-.24s.34-2.81.34-2.81A9.81,9.81,0,0,0,77.28,134.25Z"/><path class="cls-28" d="M65.84,103.83a17.38,17.38,0,0,0-.78,5.22,57.32,57.32,0,0,1-.71,7.59c-.27,2.82-1.36,9.48-1.4,11s.17,6.31.17,6.31l2.19.05s1.83-11.65,2.31-12.84,2.83-9.66,2.91-10.61S65.84,103.83,65.84,103.83Z"/><path class="cls-29" d="M74.91,103.54s1.32,7.41,1.48,8.89.27,7.16.34,8.09.53,12.1,1,13.47H75.25s-2.51-8.12-2.51-12-1.65-8.35-2.72-10.89-3.52-2.6-4.18-7.3C65.84,103.83,74,102,74.91,103.54Z"/><path class="cls-18" d="M71.88,84.64a2.08,2.08,0,0,0,0,1.37c.27.57-3.52.23-3.52.23A4.11,4.11,0,0,0,68,84.09C67.54,83.12,71.88,84.64,71.88,84.64Z"/><path class="cls-30" d="M65.66,104.44s1.37,1.4,9.37-.22l-.12-.68-9.1.34Z"/><path class="cls-18" d="M72.45,86.2s1.4.14,1.8.22,3.09-.48,3.64-.54a11.3,11.3,0,0,0,3-1.86,37.46,37.46,0,0,0,1.51-4.37c.08-.74,1.32-.36,1.22.15-.2,1-.46,3.29-.6,4a10.23,10.23,0,0,1-.79,2.57,16.35,16.35,0,0,1-4.42,2.51,17.37,17.37,0,0,0-3.64,1.69H63.93S60,84.84,59.86,84s2.78-6.55,3.35-7.27,1.4.24,1.4.24-1.71,5-1.94,5.73,2,3.85,2.6,3.86,2.17-.19,2.87-.22A5,5,0,0,0,69.57,86Z"/><path class="cls-31" d="M76.86,90a3.28,3.28,0,0,0-1.37,2.26,29,29,0,0,1-.8,4.45,50.31,50.31,0,0,0,.26,6.77c.06.4-7.92,1.35-9.14.4,0,0-.34-5.23-.49-6.71a38.54,38.54,0,0,0-1-5.57c-.23-.49-3-4.37-3.11-4.88,0,0,1.43-2.29,2.46-2.32,0,0,1.63,1.92,2.16,2a30.4,30.4,0,0,0,3.8-.51s.35.48,2.25-.09l2.62.3c.44.06,3.53-.39,3.53-.39s1.24,2.09,1,3.15Z"/><path class="cls-18" d="M82.31,80.1s.28-1.33-.06-1.71a9.42,9.42,0,0,1-.69-.87c0-.08-.54-.37-.54-.5s.49-.31.91.08.68.47.85.43a5.16,5.16,0,0,0,.43-1.79c0-.34.16-1.26.37-1.2s.21.47.21.47.25-.7.42-.56a.65.65,0,0,1,.15.47s.31-.39.4-.1a1,1,0,0,1,0,.53s.32-.17.34.27a6.56,6.56,0,0,1-.32,2.2A17,17,0,0,0,83.58,80C83.47,80.44,82.31,80.1,82.31,80.1Z"/><path class="cls-18" d="M64.33,77.77A8.73,8.73,0,0,1,65.6,76a5.06,5.06,0,0,0,1.19-.51c.4-.28.92-.52.89-.62s-.49-.05-1,.17-.73.11-.77,0A3,3,0,0,1,66.33,74c.15-.19,1.24-1.28,1.06-1.44s-.89.44-1,.56.56-1.18.34-1.24-.63.37-.63.37.05-1-1,.62c0,0,.23-.54-.1-.36s-.66,1.2-.76,1.72a7.73,7.73,0,0,1-1,2.54C62.81,77.12,64.33,77.77,64.33,77.77Z"/><path class="cls-32" d="M68,84.09a4.51,4.51,0,0,0,1.57-.32c1.06-.37,1.14-2.24,1.37-2a.68.68,0,0,0,1.1-.12s-.53-.69-.28-1a2.54,2.54,0,0,1,.63-.57s-.75-3.61-4.16-2C64.27,80,68,84.09,68,84.09Z"/><path class="cls-31" d="M71.88,86l-.12-.52a28.44,28.44,0,0,0-3.37.13l-.13.62A4.7,4.7,0,0,0,71.88,86Z"/><path class="cls-18" d="M71.34,81.3c-.2-.33-.93-.55-1,.38-.06.72,1.31,1.51,1.32.84A2,2,0,0,0,71.34,81.3Z"/><path class="cls-33" d="M82.36,79.8a2.2,2.2,0,0,1,1.17.36.87.87,0,0,1-.06.39,4.67,4.67,0,0,0-1.21-.37S82.27,79.89,82.36,79.8Z"/><path class="cls-32" d="M83.29,80a.35.35,0,0,1-.18.45.34.34,0,0,1-.44-.18.33.33,0,0,1,.18-.45A.34.34,0,0,1,83.29,80Z"/><rect class="cls-34" x="138.48" y="164.61" width="7.79" height="33.06"/><rect class="cls-34" x="156.35" y="164.61" width="7.79" height="33.06"/><rect class="cls-34" x="174.22" y="164.61" width="7.79" height="33.06"/><path class="cls-7" d="M166.68,168H153.8a6.44,6.44,0,1,1,12.88,0Z"/><path class="cls-7" d="M184.56,168H171.68a6.44,6.44,0,1,1,12.88,0Z"/><path class="cls-15" d="M190.39,186.61a19.31,19.31,0,0,0-6.19,1A17.44,17.44,0,0,0,168,176c-8.18,0-15.05,6-16.9,14a11.62,11.62,0,0,0-4.57-.92c-6.81,0-12.34,5.83-12.34,13h73.59C207.78,193.54,200,186.61,190.39,186.61Z"/><path class="cls-14" d="M177.43,198.38a18.29,18.29,0,0,0-6.19,1.07c-2.53-7.23-8.83-12.36-16.2-12.36-8.19,0-15,6.34-16.9,14.86a11.15,11.15,0,0,0-4.57-1c-6.82,0-12.34,6.18-12.34,13.81h73.59C194.82,205.73,187,198.38,177.43,198.38Z"/><path class="cls-16" d="M220.14,206.89a23.8,23.8,0,0,0-7,1A19.57,19.57,0,0,0,195,196.1c-9.2,0-16.92,6.05-19,14.19a14.52,14.52,0,0,0-5.14-.93c-7.66,0-13.87,5.91-13.87,13.19h82.71C239.68,213.9,230.93,206.89,220.14,206.89Z"/><path class="cls-15" d="M157.36,210.42a18.41,18.41,0,0,0-5.38.79,15.16,15.16,0,0,0-14.1-9.13,15,15,0,0,0-14.7,11,11.34,11.34,0,0,0-4-.72,10.49,10.49,0,0,0-10.74,10.21h64C172.49,215.85,165.72,210.42,157.36,210.42Z"/><path class="cls-18" d="M223.29,181.41l-.45-1.11a2.37,2.37,0,0,0-.89-.62,2.94,2.94,0,0,0-1.25-.31.46.46,0,0,0-.28.26.84.84,0,0,0-.07.43.51.51,0,0,0-.18.47.45.45,0,0,0-.11.49s-.21.2-.1.41a3.28,3.28,0,0,1,.48.37,7.24,7.24,0,0,0,1.78.87S223.12,182.69,223.29,181.41Z"/><path class="cls-35" d="M221.91,180.88a2.61,2.61,0,0,0,.06.67c.08.15-1.06.48-1.06.48S221.28,180.89,221.91,180.88Z"/><polygon class="cls-36" points="243.02 231.96 242.53 230.42 240.44 230.76 240.75 232.15 243.02 231.96"/><polygon class="cls-37" points="225.89 231.78 225.77 232.63 223.48 232.25 223.61 230.98 225.89 231.78"/><path class="cls-38" d="M230.84,208.08s.34,1.84.73,3.88l.21,1.07c.38,2,.77,3.86.91,4.25C233,218.17,240,231,240,231s2.86-.22,3-.58c0,0-5.87-13.94-5.84-14.45s-.72-14.8-.72-14.8S231,207.26,230.84,208.08Z"/><path class="cls-38" d="M227.64,200.36s-2.74,14-3,15.11-1.28,15.45-1.28,15.45.62,1.27,2.9.79c0,0,3.1-15.45,3.36-16,1-2,6-11.75,6.48-13.13a8.4,8.4,0,0,0,.34-3S232.77,197.53,227.64,200.36Z"/><path class="cls-17" d="M228.79,182.18s-1.2,3-1.5,2.91-3.76-4.15-3.76-4.15-1.58,2-1.37,2.2,4.38,7.1,4.94,7,3.07-4.27,3.07-4.27S230.31,182.72,228.79,182.18Z"/><path class="cls-24" d="M233.94,176.45a51.36,51.36,0,0,0-4,3.33c-.86.95-3.24,4.87-3.07,6.05a85,85,0,0,1,1,11.45c0,2.69-.84,3.37-.3,3.41s8.45,2.89,9.62,3.24c0,0-.77-9.46-1.15-10.55S237.28,180.85,233.94,176.45Z"/><path class="cls-39" d="M213.86,171.93l-.7,3.53-.7,3.52a19.22,19.22,0,0,1,8.54-.35l.31-1.55.31-1.57A19.22,19.22,0,0,1,213.86,171.93Z"/><path class="cls-7" d="M225.77,232.63s-1.73-.34-1.79-.39-.43-.73-.69-.62-.27.95-.54,1.09-2.32,1.54-2.57,1.79-1.81.1-2,.55-.2,1.48,2.13,1.23,5,.14,5.49-.14S225.93,233.3,225.77,232.63Z"/><path class="cls-7" d="M243.05,231.92s-1.76,0-1.83-.09-.54-.66-.79-.5-.11,1-.35,1.16-2,1.89-2.25,2.18-1.78.39-1.88.86,0,1.49,2.3.88,4.95-.67,5.4-1S243.31,232.56,243.05,231.92Z"/><path class="cls-40" d="M229.39,201s-.21.85-.55,1,1.58,2,1.58,2a15.77,15.77,0,0,0,.75-1.87A11.64,11.64,0,0,0,229.39,201Z"/><path class="cls-41" d="M235.32,180.15s2.24,10.64,2.42,11.73-6.56,10.88-6.56,10.88l-2.24-1.33s5.44-9.88,5.43-10.33-2.61-9-2.61-9a1.9,1.9,0,0,1,.84-2.77A1.92,1.92,0,0,1,235.32,180.15Z"/><path class="cls-38" d="M228.08,201.74a35.66,35.66,0,0,0-.68,4.73c0,1.11,4.17-1.75,4-2.85Z"/><path class="cls-18" d="M233.94,176.45s-5.68,6.21-5.33,5.52c1.24-2.45,2.12-2.87,2.1-3.32s-.15-1.37-.18-1.72c0-.65-.09-1.17-.09-1.17s2.82-4,2.7-2.61A8.11,8.11,0,0,0,233.94,176.45Z"/><path class="cls-18" d="M228.53,169.15a14.21,14.21,0,0,0-.79,2.26,10.24,10.24,0,0,1,0,1.26,18.23,18.23,0,0,0-.45,1.88c.07.36.82.17.93.76s.65,1.7.92,1.73c.71.05,3.4-1,3.57-1.61s1.15-3.7,1.45-4.3-4.74-3.87-5.2-2.92Z"/><path class="cls-42" d="M235.39,170.51c.36-1.55-1.43-1.74-1.43-1.74s-1.16-1.36-4-1.2-2.36,3.8-2.36,3.8a10.42,10.42,0,0,1,2.77-.08,13.34,13.34,0,0,1,0,1.94l1-.1s-.12-1.37.38-1.44.68,2.92,1.62,3.57a1.06,1.06,0,0,1,.12-.41h0a11.63,11.63,0,0,0,.73-1.52A16.8,16.8,0,0,0,235.39,170.51Z"/><path class="cls-18" d="M231.16,172a.8.8,0,0,1,1.32-.36c.67.49,0,2.27-.67,2.26S230.89,172.94,231.16,172Z"/><path class="cls-43" d="M232.89,174.94a2.07,2.07,0,0,1-.29.69,6,6,0,0,1-2.08,1.09l.11,1.1S233,176.9,232.89,174.94Z"/><path class="cls-44" d="M220.37,182.49l-.4-.19,1.82-3.86,1,.48-1.54,3.27A.63.63,0,0,1,220.37,182.49Z"/><path class="cls-45" d="M220.82,179.43s1.13.62,1.06.82a.32.32,0,0,1-.23.22l.35.47s.06.44-.44.37c0,0,.1.41-.37.29,0,0-.06.3-.29.28a4.36,4.36,0,0,1-.94-.45s-.11-.16.1-.41a.45.45,0,0,1,.11-.49.48.48,0,0,1,.18-.47s-.1-.56.35-.69Z"/><polygon class="cls-38" points="224.14 179.28 220.14 178.53 220.79 175.25 224.77 176.15 224.14 179.28"/><path class="cls-18" d="M222.81,180.27a4.45,4.45,0,0,0-1.38.18c-.12,0-.22.11-.22.23s.18.27.56.3a3.13,3.13,0,0,1,.87.25S223.05,181.14,222.81,180.27Z"/><path class="cls-46" d="M231.57,212l.21,1.07,2.27-6C233.75,207.62,231.57,212,231.57,212Z"/><path class="cls-7" d="M148.81,168H135.93a6.44,6.44,0,1,1,12.88,0Z"/></g></g></svg>