<svg xmlns="http://www.w3.org/2000/svg" viewBox="0 0 23.35 22.32"><defs><style>.cls-1{fill:#999;}</style></defs><title>Linkedin logo</title><g id="Layer_2" data-name="Layer 2"><g id="Layer_1-2" data-name="Layer 1"><rect class="cls-1" x="0.29" y="7.25" width="5.02" height="15.07"/><path class="cls-1" d="M21.77,8.63A5.4,5.4,0,0,0,17.59,6.9a5.9,5.9,0,0,0-1.74.24,4.08,4.08,0,0,0-1.32.66,6.28,6.28,0,0,0-.86.79,6.06,6.06,0,0,0-.59.81V7.25h-5l0,.73c0,.49,0,2,0,4.5s0,5.8,0,9.84h5V13.91a3.78,3.78,0,0,1,.16-1.23,3.3,3.3,0,0,1,1-1.3,2.44,2.44,0,0,1,1.6-.52,2.18,2.18,0,0,1,1.93.9,4.4,4.4,0,0,1,.61,2.5v8.06h5V13.68a7.2,7.2,0,0,0-1.58-5Z"/><path class="cls-1" d="M2.83,0a2.88,2.88,0,0,0-2,.74A2.45,2.45,0,0,0,0,2.6,2.5,2.5,0,0,0,.76,4.46a2.78,2.78,0,0,0,2,.74h0a2.89,2.89,0,0,0,2.06-.74A2.43,2.43,0,0,0,5.63,2.6,2.52,2.52,0,0,0,4.85.74a2.79,2.79,0,0,0-2-.74Z"/></g></g></svg>