<svg xmlns="http://www.w3.org/2000/svg" viewBox="0 0 198.21 42.78"><defs><style>.cls-1{fill:#242424;}.cls-2{fill:#00a4ff;}</style></defs><title>Gloraise Logo</title><g id="Layer_2" data-name="Layer 2"><g id="Layer_1-2" data-name="Layer 1"><path id="_Path_" data-name=" Path " class="cls-1" d="M62.65,21.44h0c0-4.89,3.54-9.36,8.94-9.36a9.51,9.51,0,0,1,6.62,2.33l-.88,1a8.14,8.14,0,0,0-5.81-2.17c-4.39,0-7.47,3.72-7.47,8.09h0c0,4.67,2.92,8.16,7.75,8.16a9.33,9.33,0,0,0,5.77-2.06v-5.2h-6V21.05h7.34v7a10.89,10.89,0,0,1-7.11,2.71c-5.71,0-9.09-4.21-9.09-9.3"/><polygon id="_Path_2" data-name=" Path 2" class="cls-1" points="83.71 12.34 85.05 12.34 85.05 29.19 95.67 29.19 95.67 30.43 83.71 30.43 83.71 12.34"/><path id="_Compound_Path_" data-name=" Compound Path " class="cls-1" d="M97.87,21.44h0a9.1,9.1,0,1,1,18.19-.6q0,.3,0,.6h0a9.1,9.1,0,1,1-18.19.6q0-.3,0-.6m16.79,0h0a7.81,7.81,0,0,0-7.49-8.13h-.23c-4.47,0-7.68,3.62-7.68,8.09h0a7.84,7.84,0,0,0,7.51,8.14H107c4.47,0,7.67-3.62,7.67-8.09"/><path id="_Compound_Path_2" data-name=" Compound Path 2" class="cls-1" d="M120.12,12.34h8.27a7.23,7.23,0,0,1,5.27,1.83,5.67,5.67,0,0,1,1.55,4.14h0a5.62,5.62,0,0,1-3.88,5.61l4.42,6.46H131.1l-3.89-5.74h-3.12v5.79h-4Zm8,8.79c1.94,0,3-1,3-2.56v-.05c0-1.71-1.19-2.58-3.13-2.58h-4v5.23Z"/><path id="_Compound_Path_3" data-name=" Compound Path 3" class="cls-1" d="M145,12.17h3.67l7.75,18.22h-4.16l-1.65-4H143l-1.65,4.06h-4.1Zm4.21,10.69L146.81,17l-2.41,5.87Z"/><rect id="_Path_3" data-name=" Path 3" class="cls-1" x="159.4" y="12.34" width="3.98" height="18.09"/><path id="_Path_4" data-name=" Path 4" class="cls-1" d="M166.66,27.8,169,25a8.34,8.34,0,0,0,5.4,2.2c1.63,0,2.61-.65,2.61-1.71h0c0-1-.62-1.53-3.64-2.3-3.65-.93-6-1.94-6-5.53h0c0-3.28,2.64-5.46,6.33-5.46a10.44,10.44,0,0,1,6.72,2.3l-2.07,3a8.4,8.4,0,0,0-4.7-1.78c-1.52,0-2.33.7-2.33,1.58h0c0,1.19.78,1.57,3.91,2.37,3.67,1,5.73,2.28,5.73,5.43h0c0,3.59-2.74,5.61-6.64,5.61a11.54,11.54,0,0,1-7.67-2.89"/><polygon id="_Path_5" data-name=" Path 5" class="cls-1" points="184.44 12.34 198.08 12.34 198.08 15.88 188.39 15.88 188.39 19.55 196.92 19.55 196.92 23.09 188.39 23.09 188.39 26.89 198.21 26.89 198.21 30.43 184.44 30.43 184.44 12.34"/><path id="_Compound_Path_4" data-name=" Compound Path 4" class="cls-2" d="M12.44,39.6V3.17A2.56,2.56,0,0,1,14.08.78a19.6,19.6,0,0,1,2-.68,2.58,2.58,0,0,1,3.18,1.76,2.44,2.44,0,0,1,.1.71v37.6a2.58,2.58,0,0,1-2.58,2.58,2.75,2.75,0,0,1-.7-.1c-.68-.2-1.36-.42-2-.68a2.58,2.58,0,0,1-1.64-2.4m-5.51-10V13.17a2.57,2.57,0,0,0-4.91-1A22.19,22.19,0,0,0,2,30.66,2.57,2.57,0,0,0,6.93,29.6M30.21.78a20.47,20.47,0,0,0-2-.68A2.58,2.58,0,0,0,25,1.86a2.44,2.44,0,0,0-.1.71v37.6a2.57,2.57,0,0,0,3.28,2.51c.68-.2,1.36-.42,2-.68a2.59,2.59,0,0,0,1.63-2.4V3.17A2.56,2.56,0,0,0,30.21.78m7.11,12.39v16.4a2.57,2.57,0,0,0,4.89,1.06,22.2,22.2,0,0,0,0-18.46,2.57,2.57,0,0,0-4.89,1"/></g></g></svg>