<svg xmlns="http://www.w3.org/2000/svg" viewBox="0 0 16.85 22.64"><defs><style>.cls-1{fill:#999;}</style></defs><title>Twitter logo</title><g id="Layer_2" data-name="Layer 2"><g id="Layer_1-2" data-name="Layer 1"><path class="cls-1" d="M14,17H8.44a2.78,2.78,0,0,1-2.79-2.81v-2h8a2.63,2.63,0,0,0,2.62-2.62,2.49,2.49,0,0,0-.77-1.85,2.53,2.53,0,0,0-1.85-.77H5.65V2.83a2.75,2.75,0,0,0-.83-2,2.71,2.71,0,0,0-2-.83,2.75,2.75,0,0,0-2,.82,2.74,2.74,0,0,0-.82,2V14.17a8.14,8.14,0,0,0,2.47,6,8.13,8.13,0,0,0,6,2.49H14a2.83,2.83,0,0,0,2-4.83A2.73,2.73,0,0,0,14,17Z"/></g></g></svg>