<svg xmlns="http://www.w3.org/2000/svg" viewBox="0 0 22.35 22.35"><defs><style>.cls-1{fill:#999;}</style></defs><title>Website icon</title><g id="Layer_2" data-name="Layer 2"><g id="Layer_1-2" data-name="Layer 1"><path class="cls-1" d="M22.32,10.43A11.17,11.17,0,0,0,11.92,0V0H10.43V0A11.19,11.19,0,0,0,0,10.43H0v1.49H0a11.17,11.17,0,0,0,10.41,10.4v0h1.49v0a11.15,11.15,0,0,0,10.4-10.4h0V10.43ZM7,2.44A11.6,11.6,0,0,0,5.24,6H3A9.71,9.71,0,0,1,7,2.44Zm-4.77,5H4.85a18.67,18.67,0,0,0-.37,3h-3a9.85,9.85,0,0,1,.71-3Zm-.71,4.47h3a18.67,18.67,0,0,0,.37,3H2.23a9.85,9.85,0,0,1-.71-3ZM3,16.39H5.24A11.38,11.38,0,0,0,7,19.91a9.71,9.71,0,0,1-4-3.52Zm7.42,4.37c-1.53-.4-2.85-2.05-3.65-4.37h3.65Zm0-5.86H6.36a17.3,17.3,0,0,1-.39-3h4.46Zm0-4.47H6a17.3,17.3,0,0,1,.39-3h4.07Zm0-4.47H6.78c.8-2.32,2.12-4,3.65-4.37Zm8.91,0H17.11a11.6,11.6,0,0,0-1.76-3.52,9.71,9.71,0,0,1,4,3.52ZM11.92,1.59C13.45,2,14.77,3.64,15.57,6H11.92Zm0,5.86H16a17.3,17.3,0,0,1,.39,3H11.92Zm0,4.47h4.46a17.3,17.3,0,0,1-.39,3H11.92Zm0,8.84V16.39h3.65c-.8,2.32-2.12,4-3.65,4.37Zm3.43-.85a12,12,0,0,0,1.76-3.52h2.23a9.71,9.71,0,0,1-4,3.52Zm4.77-5H17.5a18.67,18.67,0,0,0,.37-3h3a9.85,9.85,0,0,1-.71,3Zm-2.25-4.47a18.67,18.67,0,0,0-.37-3h2.62a9.85,9.85,0,0,1,.71,3Z"/></g></g></svg>